{
  "accessors": [
    {
      "bufferView": 2,
      "componentType": 5126,
      "count": 27527,
      "max": [
        4.603202819824219,
        4.648567199707031,
        6.222029685974121
      ],
      "min": [
        -4.729635715484619,
        -4.648567199707031,
        -6.231777191162109
      ],
      "type": "VEC3"
    },
    {
      "bufferView": 2,
      "byteOffset": 330324,
      "componentType": 5126,
      "count": 27527,
      "max": [
        1.0,
        0.9999865293502808,
        0.9999994039535522
      ],
      "min": [
        -1.0,
        -0.9999865293502808,
        -0.9999741315841675
      ],
      "type": "VEC3"
    },
    {
      "bufferView": 1,
      "componentType": 5126,
      "count": 27527,
      "max": [
        1.0000015497207642,
        1.0000001192092896
      ],
      "min": [
        -1.967373009392759e-06,
        0.0
      ],
      "type": "VEC2"
    },
    {
      "bufferView": 0,
      "componentType": 5125,
      "count": 143304,
      "type": "SCALAR"
    },
    {
      "bufferView": 2,
      "byteOffset": 660648,
      "componentType": 5126,
      "count": 1255,
      "max": [
        3.3566882610321045,
        3.8618128299713135,
        1.3344475030899048
      ],
      "min": [
        -2.082530975341797,
        -3.8618123531341553,
        -1.334450602531433
      ],
      "type": "VEC3"
    },
    {
      "bufferView": 2,
      "byteOffset": 675708,
      "componentType": 5126,
      "count": 1255,
      "max": [
        0.35594838857650757,
        1.0,
        0.19855596125125885
      ],
      "min": [
        -1.0,
        -1.0,
        -0.19855596125125885
      ],
      "type": "VEC3"
    },
    {
      "bufferView": 1,
      "byteOffset": 220216,
      "componentType": 5126,
      "count": 1255,
      "max": [
        0.9654070138931274,
        0.4654066264629364
      ],
      "min": [
        0.0,
        0.0
      ],
      "type": "VEC2"
    },
    {
      "bufferView": 0,
      "byteOffset": 573216,
      "componentType": 5125,
      "count": 5952,
      "type": "SCALAR"
    }
  ],
  "asset": {
    "extras": {
      "author": "fakepad (https://sketchfab.com/fakepad)",
      "license": "CC-BY-4.0 (http://creativecommons.org/licenses/by/4.0/)",
      "source": "https://sketchfab.com/3d-models/space-ring-ship-d7054e384eb1411ab23da35f38cc056b",
      "title": "Space Ring Ship"
    },
    "generator": "Sketchfab-13.31.0",
    "version": "2.0"
  },
  "bufferViews": [
    {
      "buffer": 0,
      "byteLength": 597024,
      "name": "floatBufferViews",
      "target": 34963
    },
    {
      "buffer": 0,
      "byteLength": 230256,
      "byteOffset": 597024,
      "byteStride": 8,
      "name": "floatBufferViews",
      "target": 34962
    },
    {
      "buffer": 0,
      "byteLength": 690768,
      "byteOffset": 827280,
      "byteStride": 12,
      "name": "floatBufferViews",
      "target": 34962
    }
  ],
  "buffers": [
    {
      "byteLength": 1518048,
      "uri": "scene.bin"
    }
  ],
  "extensionsUsed": [
    "KHR_materials_clearcoat"
  ],
  "materials": [
    {
      "doubleSided": true,
      "extensions": {
        "KHR_materials_clearcoat": {
          "clearcoatFactor": 0.14476234594238763,
          "clearcoatRoughnessFactor": 0.0
        }
      },
      "name": "Material.001",
      "pbrMetallicRoughness": {
        "baseColorFactor": [
          0.0,
          0.0,
          0.0,
          1.0
        ],
        "roughnessFactor": 0.0
      }
    },
    {
      "doubleSided": true,
      "name": "Material.002",
      "pbrMetallicRoughness": {
        "metallicFactor": 0.0,
        "roughnessFactor": 0.8040408205773457
      }
    }
  ],
  "meshes": [
    {
      "name": "Cylinder_Material.001_0",
      "primitives": [
        {
          "attributes": {
            "NORMAL": 1,
            "POSITION": 0,
            "TEXCOORD_0": 2
          },
          "indices": 3,
          "material": 0,
          "mode": 4
        }
      ]
    },
    {
      "name": "Cylinder_Material.002_0",
      "primitives": [
        {
          "attributes": {
            "NORMAL": 5,
            "POSITION": 4,
            "TEXCOORD_0": 6
          },
          "indices": 7,
          "material": 1,
          "mode": 4
        }
      ]
    }
  ],
  "nodes": [
    {
      "children": [
        1
      ],
      "matrix": [
        1.0,
        0.0,
        0.0,
        0.0,
        0.0,
        2.220446049250313e-16,
        -1.0,
        0.0,
        0.0,
        1.0,
        2.220446049250313e-16,
        0.0,
        0.0,
        0.0,
        0.0,
        1.0
      ],
      "name": "Sketchfab_model"
    },
    {
      "children": [
        2
      ],
      "matrix": [
        0.009999999776482582,
        0.0,
        0.0,
        0.0,
        0.0,
        0.0,
        0.009999999776482582,
        0.0,
        0.0,
        -0.009999999776482582,
        0.0,
        0.0,
        0.0,
        0.0,
        0.0,
        1.0
      ],
      "name": "c6c5307752644078b8cbf3057522008d.fbx"
    },
    {
      "children": [
        3
      ],
      "name": "RootNode"
    },
    {
      "children": [
        4,
        5
      ],
      "matrix": [
        -4.371138984105016e-06,
        -99.99999999999973,
        5.960463766996327e-06,
        0.0,
        -1.6292068227841128e-05,
        -5.960463056453591e-06,
        -99.9999999999985,
        0.0,
        8.832627296447628,
        -3.860865008798579e-07,
        -1.4390176419133404e-06,
        0.0,
        0.0,
        0.0,
        0.0,
        1.0
      ],
      "name": "Cylinder"
    },
    {
      "mesh": 0,
      "name": "Cylinder_Material.001_0"
    },
    {
      "mesh": 1,
      "name": "Cylinder_Material.002_0"
    }
  ],
  "scene": 0,
  "scenes": [
    {
      "name": "Sketchfab_Scene",
      "nodes": [
        0
      ]
    }
  ]
}
